<?xml version="1.0" encoding="utf-8"?>
<svg xmlns="http://www.w3.org/2000/svg" viewBox="0 0 24 24" width="24px" height="24px">
  <ellipse style="fill: white; stroke: rgb(0, 0, 0); stroke-width: 0.2px;" cx="12" rx="12" ry="12" cy="12"/>
  <g transform="matrix(0.02250000089406967, 0, 0, 0.02250000089406967, 7.167616844177246, 8.801572799682617)">
    <path d="M 290.115 449.078 L -9.885 449.078 C -40.948 449.078 -56.479 449.078 -68.731 444.005 C -85.066 437.238 -98.044 424.258 -104.81 407.925 C -109.89 395.671 -109.89 380.141 -109.89 349.078 C -109.89 318.015 -109.89 302.485 -104.81 290.231 C -98.044 273.898 -85.066 260.918 -68.731 254.151 C -56.479 249.078 -40.948 249.078 -9.885 249.078 L 456.782 249.078 C 487.845 249.078 503.375 249.078 515.628 254.151 C 531.962 260.918 544.942 273.898 551.708 290.231 C 556.782 302.485 556.782 318.015 556.782 349.078 C 556.782 380.141 556.782 395.671 551.708 407.925 C 544.942 424.258 531.962 437.238 515.628 444.005 C 503.375 449.078 487.845 449.078 456.782 449.078 L 423.448 449.078" stroke-linecap="round" style="stroke: rgb(0, 0, 0); fill: rgb(255, 255, 255); stroke-width: 44.4444px;"/>
    <path d="M -109.89 149.078 C -109.89 118.015 -109.89 102.485 -104.81 90.231 C -98.044 73.897 -85.066 60.919 -68.731 54.153 C -56.479 49.078 -40.948 49.078 -9.885 49.078 L 456.782 49.078 C 487.845 49.078 503.375 49.078 515.628 54.153 C 531.962 60.919 544.942 73.897 551.708 90.231 C 556.782 102.485 556.782 118.015 556.782 149.078 C 556.782 180.141 556.782 195.671 551.708 207.925 C 544.942 224.258 531.962 237.238 515.628 244.005 C 503.375 249.078 487.845 249.078 456.782 249.078 L -9.885 249.078 C -40.948 249.078 -56.479 249.078 -68.731 244.005 C -85.066 237.238 -98.044 224.258 -104.81 207.925 C -109.89 195.671 -109.89 180.141 -109.89 149.078 Z" style="stroke: rgb(0, 0, 0); fill: rgb(255, 255, 255); stroke-width: 44.4444px;"/>
    <path d="M 156.782 -150.92 L 456.782 -150.92 C 487.845 -150.92 503.375 -150.92 515.628 -145.85 C 531.962 -139.08 544.942 -126.1 551.708 -109.77 C 556.782 -97.516 556.782 -81.985 556.782 -50.922 C 556.782 -19.859 556.782 -4.328 551.708 7.924 C 544.942 24.259 531.962 37.237 515.628 44.003 C 503.375 49.078 487.845 49.078 456.782 49.078 L -9.885 49.078 C -40.948 49.078 -56.479 49.078 -68.731 44.003 C -85.066 37.237 -98.044 24.259 -104.81 7.924 C -109.89 -4.328 -109.89 -19.859 -109.89 -50.922 C -109.89 -81.985 -109.89 -97.516 -104.81 -109.77 C -98.044 -126.1 -85.066 -139.08 -68.731 -145.85 C -56.479 -150.92 -40.948 -150.92 -9.885 -150.92 L 23.448 -150.92" stroke-linecap="round" style="stroke: rgb(0, 0, 0); fill: rgb(255, 255, 255); stroke-width: 44.4444px;"/>
    <circle cx="-9.885" cy="149.078" r="33.333" style="stroke-width: 44.4444px;"/>
    <circle cx="-9.885" cy="-50.922" r="33.333" style="stroke-width: 44.4444px;"/>
    <circle cx="-9.885" cy="349.078" r="33.333" style="stroke-width: 44.4444px;"/>
  </g>
</svg>