<?xml version="1.0" encoding="utf-8"?>
<svg xmlns="http://www.w3.org/2000/svg" viewBox="0 0 24 24" width="24px" height="24px">
  <ellipse style="fill: white;" cx="12" rx="12" ry="12" cy="12"/>
  <path style="fill: black; stroke: white; stroke-width: 0.2px;" d="M 16.457 5.336 C 16.847 4.947 17.48 4.954 17.872 5.348 L 22.871 10.39 C 23.262 10.784 23.262 11.417 22.871 11.804 L 17.872 16.761 C 17.48 17.149 16.847 17.144 16.457 16.75 C 16.067 16.357 16.067 15.723 16.457 15.335 L 19.75 12.069 L 8.93 11.978 L 14.022 20.509 C 14.207 20.82 14.211 21.205 14.034 21.515 C 13.856 21.827 13.524 22.018 13.165 22.014 L 2.164 21.923 C 1.611 21.918 1.164 21.468 1.164 20.914 C 1.164 20.363 1.611 19.918 2.164 19.922 L 11.397 20 L 6.306 11.472 C 6.121 11.162 6.116 10.777 6.293 10.465 C 6.471 10.153 6.803 9.961 7.164 9.963 L 19.75 10.069 L 16.457 6.748 C 16.067 6.355 16.067 5.724 16.457 5.336 Z"/>
</svg>